<svg width="114" height="114" viewBox="0 0 114 114" fill="none" xmlns="http://www.w3.org/2000/svg">
<g clip-path="url(#clip0_17_501)">
<path d="M113.146 16.9297V96.2307C113.146 107.16 107.303 113.146 96.1968 113.146H16.9357C5.84311 113.146 0 107.331 0 96.2307V16.9297C0 5.82917 5.84311 0 16.9357 0H96.1968C107.303 0 113.146 5.98655 113.146 16.9297ZM12.28 56.5125C12.28 63.1305 30.9607 84.8872 56.5981 84.8872C82.2555 84.8872 100.952 63.1305 100.952 56.5125C100.952 49.8944 82.12 28.1019 56.5981 28.1019C30.3889 28.1019 12.28 49.8944 12.28 56.5125ZM75.3446 56.5125C75.3446 66.6328 66.7961 75.1733 56.5981 75.1733C46.2288 75.1733 37.9234 66.6328 37.8377 56.5125C37.766 46.1431 46.2288 37.8158 56.5981 37.8158C66.7961 37.8158 75.3446 46.1431 75.3446 56.5125ZM49.6952 56.5125C49.6952 60.2239 52.8727 63.3298 56.6977 63.3298C60.4092 63.3298 63.5011 60.2239 63.5011 56.5125C63.5011 52.6795 60.4092 49.6593 56.6977 49.6593C52.8727 49.6593 49.6952 52.6795 49.6952 56.5125Z" fill="white" fill-opacity="0.85"/>
</g>
<defs>
<clipPath id="clip0_17_501">
<rect width="113.146" height="113.218" fill="white"/>
</clipPath>
</defs>
</svg>
