<svg width="622" height="619" viewBox="0 0 622 619" fill="none" xmlns="http://www.w3.org/2000/svg">
<path d="M165.403 442.664C256.642 442.664 330.806 368.571 330.806 277.416C330.806 186.262 256.642 112 165.403 112C74.1634 112 0 186.262 0 277.416C0 368.571 74.1634 442.664 165.403 442.664Z" fill="white" fill-opacity="0.85"/>
<path d="M262.403 330.664C353.642 330.664 427.806 256.571 427.806 165.416C427.806 74.2617 353.642 0 262.403 0C171.163 0 97 74.2617 97 165.416C97 256.571 171.163 330.664 262.403 330.664Z" fill="white" fill-opacity="0.85"/>
<path d="M412.403 368.664C503.642 368.664 577.806 294.571 577.806 203.416C577.806 112.262 503.642 38 412.403 38C321.163 38 247 112.262 247 203.416C247 294.571 321.163 368.664 412.403 368.664Z" fill="white" fill-opacity="0.85"/>
<path d="M450.403 513.664C541.642 513.664 615.806 439.571 615.806 348.416C615.806 257.262 541.642 183 450.403 183C359.163 183 285 257.262 285 348.416C285 439.571 359.163 513.664 450.403 513.664Z" fill="white" fill-opacity="0.85"/>
<path d="M352.403 618.664C443.642 618.664 517.806 544.571 517.806 453.416C517.806 362.262 443.642 288 352.403 288C261.163 288 187 362.262 187 453.416C187 544.571 261.163 618.664 352.403 618.664Z" fill="white" fill-opacity="0.85"/>
<path d="M199.403 576.664C290.642 576.664 364.806 502.571 364.806 411.416C364.806 320.262 290.642 246 199.403 246C108.163 246 34 320.262 34 411.416C34 502.571 108.163 576.664 199.403 576.664Z" fill="white" fill-opacity="0.85"/>
</svg>
